<?xml version="1.0" standalone="no"?>
<!DOCTYPE svg PUBLIC "-//W3C//DTD SVG 20010904//EN"
 "http://www.w3.org/TR/2001/REC-SVG-20010904/DTD/svg10.dtd">
<svg version="1.0" xmlns="http://www.w3.org/2000/svg"
 width="500.000000pt" height="500.000000pt" viewBox="0 0 500.000000 500.000000"
 preserveAspectRatio="xMidYMid meet">

<g transform="translate(0.000000,500.000000) scale(0.100000,-0.100000)"
fill="#000000" stroke="none">
<path d="M3052 3630 c0 -14 2 -19 5 -12 2 6 2 18 0 25 -3 6 -5 1 -5 -13z"/>
<path d="M3075 3480 c-3 -5 1 -10 10 -10 9 0 13 5 10 10 -3 6 -8 10 -10 10 -2
0 -7 -4 -10 -10z"/>
<path d="M3114 3428 c-10 -12 -14 -18 -7 -15 6 4 14 3 18 -3 6 -10 -7 -14 -32
-11 -7 1 -13 -2 -13 -6 0 -17 39 -11 56 8 10 11 13 19 7 17 -6 -2 -10 2 -9 7
0 6 4 9 9 8 4 -2 7 2 7 7 0 16 -16 11 -36 -12z"/>
<path d="M3035 3426 c3 -11 0 -23 -7 -28 -9 -5 -10 -8 -1 -8 19 0 25 18 13 37
-11 17 -11 16 -5 -1z"/>
<path d="M2460 3426 c0 -2 8 -10 18 -17 15 -13 16 -12 3 4 -13 16 -21 21 -21
13z"/>
<path d="M2615 3410 c3 -5 8 -10 11 -10 2 0 4 5 4 10 0 6 -5 10 -11 10 -5 0
-7 -4 -4 -10z"/>
<path d="M2650 3383 c0 -8 4 -12 9 -8 17 10 21 -12 6 -25 -13 -11 -13 -15 5
-30 19 -16 18 -30 -2 -30 -5 0 -6 5 -2 12 5 7 2 9 -9 5 -9 -3 -18 -1 -20 6 -3
7 -4 2 -4 -10 1 -12 7 -25 14 -27 7 -3 13 -13 13 -22 0 -10 6 -14 14 -11 9 4
16 -4 20 -24 3 -19 10 -28 17 -23 6 3 7 9 2 13 -4 3 -10 22 -11 41 -5 59 -13
90 -23 84 -5 -3 -9 -1 -9 5 0 5 5 13 10 16 8 5 8 11 1 19 -6 7 -9 15 -6 18 3
2 -2 5 -10 5 -8 0 -15 -7 -15 -14z"/>
<path d="M2896 3363 c-6 -14 -5 -15 5 -6 7 7 10 15 7 18 -3 3 -9 -2 -12 -12z"/>
<path d="M2570 3361 c0 -6 4 -13 10 -16 6 -3 7 1 4 9 -7 18 -14 21 -14 7z"/>
<path d="M2721 3363 c3 -20 -2 -27 -12 -13 -8 12 -9 12 -7 -5 2 -10 11 -27 21
-38 16 -16 17 -30 12 -120 l-6 -102 23 40 c53 91 88 185 68 185 -5 0 -9 3 -7
8 1 4 -1 8 -5 10 -19 6 -27 1 -22 -15 5 -15 4 -15 -4 -3 -6 8 -8 18 -5 24 4 5
-1 7 -12 2 -16 -6 -16 -4 -4 11 7 10 10 15 5 11 -5 -4 -17 -3 -27 3 -11 5 -19
6 -18 2z m22 -40 c5 -26 4 -26 -9 -9 -7 10 -11 23 -8 27 8 14 11 11 17 -18z"/>
<path d="M2504 3322 c1 -17 19 -17 24 0 3 10 1 10 -6 -1 -9 -12 -11 -12 -14 0
-3 9 -5 10 -4 1z"/>
<path d="M2590 3319 c0 -5 5 -7 10 -4 6 3 10 8 10 11 0 2 -4 4 -10 4 -5 0 -10
-5 -10 -11z"/>
<path d="M3040 3322 c0 -4 -15 -9 -32 -10 -54 -4 -69 -12 -63 -32 7 -21 -10
-36 -21 -19 -4 8 -3 9 4 5 7 -4 12 -3 12 3 0 22 -20 20 -51 -6 -39 -33 -183
-326 -219 -443 -12 -41 -28 -94 -36 -118 -8 -23 -14 -45 -14 -49 0 -7 120 105
138 130 19 25 25 68 14 98 -10 25 3 79 19 79 5 0 9 -15 9 -32 0 -25 3 -29 10
-18 5 8 10 33 10 55 0 27 8 49 25 70 l24 30 1 -46 c0 -33 -7 -55 -22 -75 l-22
-29 27 24 c15 14 29 22 32 19 11 -11 -15 -59 -38 -69 -13 -6 -34 -31 -46 -56
-24 -50 -21 -49 62 15 78 61 120 126 113 172 -3 19 -6 43 -6 53 0 9 -6 17 -13
17 -24 0 -47 35 -47 70 l0 33 26 -24 c14 -13 30 -33 34 -44 7 -16 9 -17 9 -3
1 9 -3 20 -9 23 -13 8 -13 92 0 100 5 3 18 -11 29 -32 l20 -38 1 29 c0 46 22
97 38 91 10 -4 12 0 8 11 -3 8 -6 18 -6 20 0 2 -4 4 -10 4 -5 0 -10 -4 -10 -8z"/>
<path d="M3088 3298 c-19 -20 -28 -42 -28 -63 0 -18 -6 -38 -14 -44 -8 -6 -16
-21 -19 -32 -6 -21 -5 -21 18 1 33 31 37 13 10 -40 -35 -68 -41 -83 -49 -113
l-7 -29 29 34 c50 57 81 120 75 150 -3 15 -9 25 -14 22 -10 -6 -4 15 17 62 8
18 13 44 12 58 -1 14 -3 26 -3 26 0 -1 -12 -15 -27 -32z"/>
<path d="M2410 3316 c0 -2 8 -10 18 -17 15 -13 16 -12 3 4 -13 16 -21 21 -21
13z"/>
<path d="M2481 3310 c0 -8 4 -22 9 -30 12 -18 12 -2 0 25 -6 13 -9 15 -9 5z"/>
<path d="M2535 3302 c-13 -28 -14 -42 -4 -42 6 0 8 -4 5 -9 -3 -4 2 -15 12
-24 16 -14 17 -13 18 21 1 20 0 31 -3 25 -3 -7 -9 -13 -14 -13 -6 0 -7 5 -4
10 3 6 0 10 -7 10 -8 1 -7 5 5 14 10 8 14 17 9 20 -6 3 -13 -2 -17 -12z"/>
<path d="M2334 3258 c-4 -7 -3 -8 5 -4 6 4 20 2 29 -6 15 -12 16 -11 3 5 -16
20 -27 22 -37 5z"/>
<path d="M2458 3263 c6 -2 10 -8 8 -12 -3 -4 1 -8 9 -8 11 0 12 4 4 14 -6 7
-17 13 -23 12 -7 0 -6 -2 2 -6z"/>
<path d="M2615 3238 c-7 -46 0 -131 19 -213 9 -38 16 -81 17 -95 1 -44 50 79
56 140 5 47 2 58 -16 74 -11 11 -21 25 -21 33 0 8 -4 12 -9 9 -4 -3 -6 6 -3
20 3 17 -2 30 -14 40 -11 9 -13 13 -6 9 6 -3 12 -1 12 4 0 6 -7 11 -15 11 -8
0 -16 -13 -20 -32z"/>
<path d="M3157 3234 c-32 -30 -38 -71 -8 -55 18 10 48 67 39 76 -2 2 -16 -7
-31 -21z"/>
<path d="M3300 3229 c-32 -20 -59 -47 -60 -59 0 -3 4 -11 9 -19 14 -21 65 20
78 63 6 20 10 36 10 36 -1 0 -18 -10 -37 -21z"/>
<path d="M2354 3220 c0 -13 4 -16 10 -10 7 7 7 13 0 20 -6 6 -10 3 -10 -10z"/>
<path d="M2386 3209 c2 -4 -2 -10 -8 -13 -7 -3 -3 -3 10 0 12 3 22 1 22 -5 0
-6 7 -8 15 -5 24 10 17 21 -14 26 -17 2 -28 1 -25 -3z"/>
<path d="M2455 3210 c-3 -5 0 -10 7 -10 7 -1 0 -7 -17 -14 -17 -7 -35 -10 -41
-5 -6 5 -23 -1 -41 -14 l-31 -23 24 -27 c22 -25 29 -27 25 -4 -1 4 4 17 10 29
9 17 13 18 21 7 7 -11 12 -10 25 9 8 12 20 22 25 22 5 0 2 -7 -6 -16 -9 -8
-13 -20 -10 -26 4 -7 2 -8 -4 -4 -7 4 -12 1 -12 -9 0 -9 4 -14 8 -11 12 7 4
-64 -9 -80 -12 -14 8 -86 37 -134 14 -24 15 -23 8 25 -12 92 -13 186 -1 178 6
-4 8 0 5 9 -4 9 0 15 8 15 8 0 14 -10 14 -23 0 -13 4 -25 9 -28 5 -4 1 -24
-10 -46 -10 -21 -19 -45 -18 -52 0 -7 7 4 16 25 8 20 19 37 24 37 14 0 10 -44
-6 -66 -8 -10 -14 -30 -14 -44 0 -24 0 -24 13 5 7 17 20 36 29 44 15 12 17 9
17 -30 0 -30 -8 -54 -26 -81 l-26 -38 21 -52 c11 -29 24 -71 29 -93 l8 -40 16
50 c30 90 39 176 28 259 -13 92 -43 183 -67 203 -10 8 -12 12 -5 8 21 -11 13
4 -9 15 -15 9 -24 8 -37 -2 -15 -12 -16 -11 -3 5 13 16 13 20 0 28 -18 11 -26
11 -34 -1z m-75 -65 c0 -9 -6 -12 -16 -8 -13 5 -13 7 -2 14 17 11 18 11 18 -6z"/>
<path d="M3333 3153 c-21 -14 -33 -53 -16 -53 11 0 73 51 73 61 0 14 -32 10
-57 -8z"/>
<path d="M3132 3119 c-23 -23 -42 -49 -42 -58 0 -16 57 42 80 82 16 25 9 21
-38 -24z"/>
<path d="M2258 3128 c-21 -18 -29 -46 -15 -51 7 -2 20 3 30 11 14 12 20 13 30
3 9 -10 9 -11 -4 -6 -9 3 -23 -3 -33 -14 -10 -11 -24 -17 -32 -14 -8 3 -14 0
-14 -6 0 -6 -7 -11 -16 -11 -8 0 -13 -4 -10 -8 3 -5 -1 -9 -9 -9 -8 0 -12 4
-9 9 3 4 -2 5 -10 2 -18 -7 -22 -40 -6 -47 6 -3 5 -4 -2 -3 -7 1 -16 16 -19
32 -4 16 -7 23 -8 17 0 -7 -8 -13 -17 -13 -12 0 -6 -12 21 -41 22 -25 35 -48
32 -58 -2 -11 10 -33 29 -55 22 -25 34 -33 34 -22 0 9 -5 16 -11 16 -5 0 -7 5
-4 10 3 6 2 10 -3 10 -16 0 -39 58 -34 88 2 16 10 29 17 29 8 0 11 -5 8 -10
-4 -6 1 -8 11 -4 14 5 16 3 11 -12 -3 -11 -1 -22 5 -26 5 -3 10 -27 10 -52 0
-26 2 -44 4 -42 3 3 13 62 16 89 0 2 5 -1 11 -7 7 -7 13 -38 13 -70 2 -69 4
-72 84 -158 54 -57 62 -63 56 -38 -11 46 -35 93 -49 93 -16 0 -40 36 -49 74
l-7 28 30 -23 c17 -13 34 -35 38 -49 7 -23 8 -21 13 15 5 38 6 39 18 18 7 -12
15 -60 18 -105 5 -74 36 -178 64 -211 4 -4 15 13 25 38 28 74 18 153 -32 258
-23 48 -44 87 -47 87 -3 0 -16 -4 -30 -10 -17 -6 -36 -6 -56 2 -27 9 -30 12
-18 25 17 16 44 20 75 9 18 -6 22 -4 17 8 -3 9 -10 13 -15 10 -5 -3 -6 2 -3
10 7 18 -30 56 -53 55 -14 0 -14 -2 3 -9 12 -5 25 -13 29 -19 8 -14 -39 -33
-60 -25 -8 4 -22 1 -29 -5 -10 -9 -16 -9 -21 -1 -4 6 -3 10 2 9 21 -4 25 2 10
14 -16 11 -16 14 -2 32 9 11 14 14 10 8 -4 -9 1 -13 14 -13 28 0 26 8 -4 32
-14 11 -22 25 -18 31 4 7 0 8 -13 3 -16 -6 -17 -5 -6 6 11 11 16 10 26 -4 14
-19 62 -26 51 -7 -4 6 -14 8 -22 5 -8 -3 -11 -1 -8 4 3 6 1 10 -5 10 -6 0 -9
4 -5 9 3 5 -1 15 -8 23 -8 7 -11 20 -9 28 3 8 -7 2 -21 -14 -15 -16 -27 -25
-27 -21 0 5 7 17 17 27 19 21 14 24 -9 6z m12 -103 c11 -13 10 -14 -5 -9 -14
6 -16 4 -10 -7 5 -8 4 -11 0 -6 -12 10 -15 37 -5 37 4 0 13 -7 20 -15z"/>
<path d="M3402 3104 c-48 -33 -15 -46 45 -17 31 14 33 18 17 24 -29 11 -38 10
-62 -7z"/>
<path d="M3232 3095 c-34 -18 -49 -35 -33 -35 20 0 48 18 55 35 3 8 4 15 3 14
-1 -1 -13 -7 -25 -14z"/>
<path d="M3001 3084 c0 -11 3 -14 6 -6 3 7 2 16 -1 19 -3 4 -6 -2 -5 -13z"/>
<path d="M3124 3057 c-18 -12 -40 -28 -50 -35 -11 -7 -13 -10 -6 -7 6 3 12 2
12 -4 0 -6 11 -5 29 2 17 6 27 15 24 20 -3 4 3 17 13 28 21 24 17 23 -22 -4z"/>
<path d="M2380 3051 c0 -5 5 -13 10 -16 6 -3 10 -2 10 4 0 5 -4 13 -10 16 -5
3 -10 2 -10 -4z"/>
<path d="M3330 3041 c0 -16 29 -33 51 -29 22 3 22 4 5 21 -18 18 -56 24 -56 8z"/>
<path d="M3103 2985 c-23 -12 -75 -49 -115 -82 l-73 -58 45 -3 c38 -3 47 0 63
22 14 19 28 26 53 26 41 0 37 -15 -10 -37 -31 -14 -31 -14 20 -9 87 8 121 -10
64 -34 l-30 -12 20 -28 c26 -36 25 -38 -5 -32 -14 2 -34 16 -43 29 -25 37 -51
63 -62 63 -5 0 2 -11 15 -25 27 -26 33 -65 11 -65 -19 0 -35 22 -42 58 -8 37
-21 40 -91 16 -66 -23 -156 -86 -239 -168 -67 -68 -150 -170 -108 -135 10 9
54 33 97 53 62 30 80 43 91 69 14 34 43 64 52 54 11 -11 -9 -51 -39 -78 -29
-27 -29 -28 -6 -22 85 19 123 35 149 63 27 29 63 39 74 21 7 -11 -22 -37 -54
-50 -21 -8 -16 -9 28 -9 52 0 87 -15 76 -33 -9 -15 -81 -10 -94 6 -7 8 -16 15
-21 15 -4 0 3 -12 18 -27 25 -28 25 -28 3 -31 -26 -4 -70 23 -70 43 0 8 -1 15
-2 15 -2 -1 -32 -9 -68 -19 l-65 -18 42 -7 c23 -4 52 -5 63 -1 13 4 31 0 48
-11 l27 -19 -35 -5 c-23 -3 -39 -1 -46 8 -5 8 -21 12 -35 10 -22 -4 -21 -5 16
-23 31 -15 41 -27 43 -48 3 -26 2 -28 -18 -17 -11 6 -26 22 -32 35 -6 13 -18
27 -26 30 -13 5 -13 3 1 -13 18 -20 23 -52 8 -52 -6 0 -17 10 -25 22 -9 12
-16 17 -16 10 0 -21 -16 -13 -29 14 -15 33 -5 46 15 20 8 -11 14 -15 14 -9 0
22 -26 30 -76 24 -60 -8 -98 -33 -155 -104 -50 -61 -117 -127 -129 -127 -5 0
9 26 31 59 21 32 42 72 45 89 8 41 -25 113 -68 146 -35 26 -68 34 -68 17 0
-14 -58 -32 -65 -20 -4 5 1 12 9 15 9 3 16 10 16 15 0 4 -13 0 -29 -9 -37 -21
-54 -7 -22 19 25 21 12 26 -18 7 -14 -9 -26 -8 -50 2 -44 18 -25 34 39 33 46
-1 49 1 39 19 -6 11 -9 21 -7 23 8 8 54 -22 62 -40 5 -11 29 -30 54 -42 l45
-22 -24 26 c-44 49 -49 54 -49 50 0 -3 -14 8 -32 24 -17 17 -37 28 -45 25 -7
-3 -13 -1 -13 4 0 15 -33 12 -58 -6 -12 -8 -32 -14 -45 -12 -20 3 -19 5 13 27
28 18 30 22 10 16 -82 -24 -125 -14 -80 18 11 8 17 16 14 20 -3 3 18 -1 47 -9
73 -19 74 -17 4 17 -57 27 -60 28 -67 10 -7 -20 -7 -20 -121 -7 -16 1 -32 7
-35 13 -4 6 -18 14 -31 18 -15 5 -21 4 -17 -3 3 -6 2 -13 -3 -16 -5 -4 -12 -2
-16 4 -10 16 -25 11 -25 -9 0 -13 -9 -20 -30 -24 -18 -4 -30 -13 -30 -23 0 -8
-6 -14 -12 -12 -8 3 -15 33 -18 84 -3 44 -8 -56 -11 -226 -8 -358 -31 -548
-95 -787 -6 -22 -6 -22 26 -7 68 34 194 3 252 -63 25 -28 48 -88 48 -125 -1
-49 -34 -115 -72 -139 l-33 -21 265 6 c146 4 326 11 400 16 184 12 600 12 713
0 51 -6 121 -17 157 -24 36 -8 66 -13 68 -11 1 1 -2 15 -8 31 -27 70 -94 331
-125 488 -42 208 -71 433 -87 660 -11 153 -14 175 -36 208 -13 21 -34 64 -46
97 l-22 60 -41 -24z m-1158 -185 c3 -6 -1 -7 -9 -4 -18 7 -21 14 -7 14 6 0 13
-4 16 -10z m964 -122 c-28 -55 -69 -77 -69 -39 0 21 44 61 67 61 11 0 11 -4 2
-22z m28 -189 c20 -17 16 -29 -9 -29 -26 0 -36 7 -58 34 -14 18 -13 19 19 13
19 -4 40 -12 48 -18z"/>
<path d="M3220 2988 c0 -15 8 -34 17 -44 26 -25 29 0 4 39 l-21 32 0 -27z"/>
<path d="M3270 2995 c0 -18 44 -65 60 -65 14 0 3 39 -18 63 -19 21 -42 22 -42
2z"/>
<path d="M2004 2982 c1 -20 22 -36 35 -27 5 3 12 1 16 -5 4 -6 11 -8 16 -4 5
3 6 10 3 16 -5 7 -2 8 5 4 7 -5 10 -14 7 -22 -3 -7 3 -19 14 -27 13 -9 16 -17
9 -27 -12 -20 -11 -43 1 -35 6 4 8 10 6 14 -3 4 0 13 6 21 8 13 9 13 5 0 -6
-21 21 -53 62 -75 l34 -17 -21 29 c-11 16 -39 48 -61 71 -22 23 -43 53 -47 67
-3 14 -9 25 -13 26 -3 0 -14 2 -25 4 -14 3 -16 1 -7 -8 18 -18 13 -31 -6 -15
-31 26 -41 29 -39 10z m31 -12 c3 -5 1 -10 -4 -10 -6 0 -11 5 -11 10 0 6 2 10
4 10 3 0 8 -4 11 -10z"/>
<path d="M2004 2934 c1 -23 30 -57 40 -47 3 4 6 2 6 -4 0 -6 10 -13 23 -16
l22 -6 -21 17 c-12 9 -33 30 -47 47 -21 25 -24 26 -23 9z"/>
<path d="M1680 2840 c0 -47 -4 -80 -10 -80 -6 0 -8 -17 -5 -42 4 -33 3 -37 -4
-18 l-9 25 -3 -25 c-1 -14 -6 16 -9 65 -3 50 -7 -108 -8 -349 -1 -242 0 -437
3 -434 3 3 15 65 26 139 16 105 21 207 26 467 3 182 3 332 0 332 -4 0 -7 -36
-7 -80z"/>
<path d="M1849 2918 c-5 -19 -8 -50 -4 -46 7 7 15 48 9 48 -2 0 -4 -1 -5 -2z"/>
<path d="M1884 2899 c-18 -20 -18 -21 1 -35 10 -8 23 -14 29 -14 5 0 17 -7 26
-15 14 -12 21 -13 43 -2 35 16 34 27 -2 27 -17 0 -33 5 -36 10 -3 6 -20 8 -36
5 -27 -5 -29 -4 -19 14 7 15 23 21 58 24 l47 3 -46 2 c-35 2 -50 -3 -65 -19z
m61 -47 c-3 -3 -11 0 -18 7 -9 10 -8 11 6 5 10 -3 15 -9 12 -12z m35 -6 c0 -3
-4 -8 -10 -11 -5 -3 -10 -1 -10 4 0 6 5 11 10 11 6 0 10 -2 10 -4z"/>
<path d="M2020 2860 c0 -6 7 -10 15 -10 8 0 15 2 15 4 0 2 -7 6 -15 10 -8 3
-15 1 -15 -4z"/>
<path d="M1525 2220 l0 -625 23 -50 c25 -55 69 -105 118 -136 79 -48 86 -49
784 -48 410 0 644 4 625 10 -162 49 -307 61 -820 68 -456 6 -482 8 -525 27
-25 12 -60 36 -78 55 -67 68 -65 52 -72 619 -3 283 -7 504 -8 491 -2 -24 -2
-24 -18 -5 -15 18 -15 18 -11 -9 3 -16 1 -25 -4 -20 -5 5 -10 62 -12 128 -1
66 -3 -161 -2 -505z"/>
<path d="M1680 1768 c-68 -46 -67 -140 4 -213 40 -42 46 -45 94 -45 101 0 160
57 149 143 -11 78 -66 126 -153 134 -51 4 -64 2 -94 -19z"/>
<path d="M2910 1455 c111 -18 260 -53 327 -76 l53 -18 0 43 c0 41 -2 44 -32
50 -18 3 -123 8 -233 10 -198 5 -199 5 -115 -9z"/>
</g>
</svg>
